<?xml version="1.0" encoding="UTF-8"?>
<svg width="400" height="120" viewBox="0 0 400 120" fill="none" xmlns="http://www.w3.org/2000/svg">
  <!-- 优雅的背景装饰 -->
  <path d="M40 60 Q200 15 360 60" stroke="#D4AF37" stroke-width="0.3" fill="none" opacity="0.4"/>
  <path d="M40 65 Q200 110 360 65" stroke="#D4AF37" stroke-width="0.3" fill="none" opacity="0.4"/>
  
  <!-- 古典风格装饰元素 -->
  <path d="M30 50 Q60 48 90 50" stroke="#D4AF37" stroke-width="0.2" fill="none" opacity="0.5"/>
  <path d="M310 50 Q340 48 370 50" stroke="#D4AF37" stroke-width="0.2" fill="none" opacity="0.5"/>
  
  <!-- 主标题文字 -->
  <text x="50%" y="45%" text-anchor="middle" font-family="Didot, serif" font-size="32" letter-spacing="6" fill="#FFFFFF" opacity="0.95">
    MAISON
  </text>
  <text x="50%" y="75%" text-anchor="middle" font-family="Didot, serif" font-size="32" letter-spacing="8" fill="#FFFFFF" opacity="0.95">
    ÉLÉGANCE
  </text>

  <!-- 精致分隔线 -->
  <line x1="120" y1="58" x2="280" y2="58" stroke="#D4AF37" stroke-width="0.3" opacity="0.6"/>
  
  <!-- 古典装饰图案 -->
  <g transform="translate(190,25) scale(0.5)">
    <path d="M-40 0 Q-20 -20 0 0 Q20 20 40 0 Q60 -20 80 0" stroke="#D4AF37" stroke-width="0.3" fill="none" opacity="0.6"/>
  </g>
  <g transform="translate(190,90) scale(0.5) rotate(180)">
    <path d="M-40 0 Q-20 -20 0 0 Q20 20 40 0 Q60 -20 80 0" stroke="#D4AF37" stroke-width="0.3" fill="none" opacity="0.6"/>
  </g>

  <!-- 优雅边框 -->
  <rect x="15" y="10" width="370" height="100" stroke="#D4AF37" stroke-width="0.3" fill="none" opacity="0.5"/>
  <rect x="20" y="15" width="360" height="90" stroke="#D4AF37" stroke-width="0.2" fill="none" opacity="0.3"/>
  
  <!-- 角落装饰 -->
  <path d="M15 10 L35 10 M15 10 L15 30" stroke="#D4AF37" stroke-width="0.4" opacity="0.7"/>
  <path d="M385 10 L365 10 M385 10 L385 30" stroke="#D4AF37" stroke-width="0.4" opacity="0.7"/>
  <path d="M15 110 L35 110 M15 110 L15 90" stroke="#D4AF37" stroke-width="0.4" opacity="0.7"/>
  <path d="M385 110 L365 110 M385 110 L385 90" stroke="#D4AF37" stroke-width="0.4" opacity="0.7"/>
</svg> 